# xmcd CD database file
#
# Track frame offsets:
#	150
#	15468
#	35303
#	49213
#	69998
#	96035
#	116428
#	130395
#	146890
#	160023
#
# Disc length: 2379 seconds
#
# Revision: 0
# Processed by: cddbd v1.5.1PL0 Copyright (c) Steve Scherf et al.
# Submitted via: CDex 1.51
#
DISCID=8009490a
DTITLE=Bellets - 半端者
DYEAR=1991
DGENRE=J-Pop
TTITLE0=半端者
TTITLE1=道化師の条件
TTITLE2=さめたSPARE KETの為に
TTITLE3=雨が降り続いたら
TTITLE4=2ピースのパズル
TTITLE5=忘れてしまえ
TTITLE6=クソガキ
TTITLE7=MY LOVELY JOEDY
TTITLE8=何もかも消えてしまえ
TTITLE9=ラッシュ・アワー
EXTD=YEAR: 1991
EXTT0=
EXTT1=
EXTT2=
EXTT3=
EXTT4=
EXTT5=
EXTT6=
EXTT7=
EXTT8=
EXTT9=
PLAYORDER=
